<?xml version="1.0" encoding="iso-8859-1"?>
<!-- Generator: Adobe Illustrator 19.0.0, SVG Export Plug-In . SVG Version: 6.00 Build 0)  -->
<svg xmlns="http://www.w3.org/2000/svg" xmlns:xlink="http://www.w3.org/1999/xlink" version="1.1" id="Layer_1" x="0px" y="0px" viewBox="0 0 511.559 511.559" style="enable-background:new 0 0 511.559 511.559;" xml:space="preserve" width="512" height="512">
<g>
	<g>
		<path style="fill:#E4EDFB;" d="M357.238,301.168c-14.719,22.563-34.094,41.811-56.775,56.363l44.753,44.753l56.569-56.569    L357.238,301.168z"/>
		<circle style="fill:#E4EDFB;" cx="198" cy="197.5" r="190"/>
		<circle style="fill:#92D8FF;" cx="198" cy="197.5" r="150"/>
		<path style="fill:#92DD7A;" d="M487.449,410.167l-75.058-75.058l-77.782,77.782l75.058,75.058    c21.479,21.479,56.303,21.479,77.782,0l0,0C508.928,466.47,508.928,431.646,487.449,410.167z"/>
		<path style="fill:#FFA5B5;" d="M279.5,207.5v54c0,8.28-6.72,15-15,15h-133c-8.28,0-15-6.72-15-15v-54H279.5z"/>
		<path style="fill:#FF8DA3;" d="M279.5,207.5v29.99c-0.33,0.01-0.67,0.01-1,0.01h-161c-0.33,0-0.67,0-1-0.01V207.5H279.5z"/>
		<path style="fill:#FFA5B5;" d="M102.5,192.5v-53h191v53c0,8.284-6.716,15-15,15h-161C109.216,207.5,102.5,200.784,102.5,192.5z"/>
		<path style="fill:#4ABEF0;" d="M198,77.5c77.78,0,141.729,59.201,149.255,135c0.49-4.934,0.745-9.937,0.745-15    c0-82.843-67.157-150-150-150s-150,67.157-150,150c0,5.063,0.255,10.066,0.745,15C56.271,136.701,120.22,77.5,198,77.5z"/>
		<path style="fill:#BCC8D9;" d="M378.881,322.812l-21.643-21.643c-14.719,22.563-34.094,41.811-56.775,56.363l21.664,21.664    c11.145-7.648,21.673-16.367,31.438-26.131C362.981,343.646,371.43,333.518,378.881,322.812z"/>
		<path style="fill:#72CC50;" d="M487.449,446.34c-21.479,21.479-56.303,21.479-77.782,0l-54.254-54.254l-20.804,20.804    l75.058,75.058c21.479,21.479,56.303,21.479,77.782,0c16.139-16.138,20.149-39.81,12.035-59.695    C496.799,434.834,492.79,441,487.449,446.34z"/>
	</g>
	<g>
		<path d="M492.753,404.864l-28.369-28.369l-10.607,10.607l28.369,28.369c8.972,8.972,13.913,20.899,13.913,33.587    c0,12.689-4.94,24.617-13.913,33.587c-8.972,8.972-20.899,13.913-33.587,13.913c-12.689,0-24.617-4.94-33.587-13.913    l-69.756-69.755l67.175-67.175l30.779,30.78l10.607-10.607l-41.387-41.386l-10.606,10.606l-35.055-35.056    c18.247-29.911,28.77-65.025,28.77-102.553c0-72.542-39.649-139.109-103.475-173.724l-7.15,13.186    C343.858,68.95,380.5,130.465,380.5,197.5C380.5,298.131,298.631,380,198,380c-59.046,0-114.726-28.789-148.943-77.011    l-12.232,8.68C73.85,363.849,134.103,395,198,395c37.007,0,71.664-10.24,101.302-28.022l35.307,35.307l-10.606,10.606    l80.361,80.361c11.803,11.806,27.498,18.307,44.194,18.307c16.694,0,32.389-6.501,44.193-18.306    c11.806-11.803,18.307-27.498,18.307-44.194C511.059,432.364,504.558,416.67,492.753,404.864z M312.135,358.596    c17.772-12.628,33.366-28.126,46.12-45.803l32.922,32.923l-45.961,45.961L312.135,358.596z"/>
		<path d="M15.5,197.5C15.5,96.869,97.369,15,198,15c25.74,0,50.62,5.249,73.949,15.602l6.084-13.711C252.776,5.683,225.85,0,198,0    C89.098,0,0.5,88.598,0.5,197.5c0,35.68,9.618,70.646,27.815,101.119l12.879-7.689C24.385,262.78,15.5,230.473,15.5,197.5z"/>
		<path d="M40.5,197.5C40.5,284.346,111.154,355,198,355s157.5-70.654,157.5-157.5S284.846,40,198,40S40.5,110.654,40.5,197.5z     M340.5,197.5c0,78.575-63.925,142.5-142.5,142.5S55.5,276.075,55.5,197.5S119.425,55,198,55S340.5,118.925,340.5,197.5z"/>
		<path d="M149.5,117.5V132H95v60.5c0,9.399,5.796,17.467,14,20.828V261.5c0,12.406,10.094,22.5,22.5,22.5h133    c12.406,0,22.5-10.094,22.5-22.5v-48.172c8.204-3.361,14-11.428,14-20.828V132h-54.5v-14.5c0-12.406-10.094-22.5-22.5-22.5h-52    C159.594,95,149.5,105.094,149.5,117.5z M272,261.5c0,4.136-3.364,7.5-7.5,7.5h-133c-4.136,0-7.5-3.364-7.5-7.5V215h66.5v16.5h15    V215H272V261.5z M286,192.5c0,4.136-3.364,7.5-7.5,7.5h-73v-16.5h-15V200h-73c-4.136,0-7.5-3.364-7.5-7.5V147h176V192.5z     M231.5,117.5V132h-67v-14.5c0-4.136,3.364-7.5,7.5-7.5h52C228.136,110,231.5,113.364,231.5,117.5z"/>
	</g>
	<g>
		<path style="fill:#FFFFFF;" d="M378.017,422.517l-10.607-10.607l22.627-22.627l10.607,10.607L378.017,422.517z M411.251,389.282    l-10.607-10.607l10.766-10.766l10.607,10.607L411.251,389.282z"/>
		<path style="fill:#FFFFFF;" d="M448.559,481.558c-8.682,0-16.844-3.38-22.981-9.518l10.607-10.607    c3.305,3.305,7.699,5.125,12.374,5.125s9.069-1.82,12.374-5.125s5.125-7.699,5.125-12.374h15c0,8.682-3.38,16.844-9.518,22.981    S457.24,481.558,448.559,481.558z"/>
		<g>
			<rect x="221.5" y="299" style="fill:#FFFFFF;" width="15" height="15"/>
			<rect x="190.5" y="299" style="fill:#FFFFFF;" width="15" height="15"/>
			<rect x="159.5" y="299" style="fill:#FFFFFF;" width="15" height="15"/>
		</g>
	</g>
</g>















</svg>
